M48
INCH,TZ
T1C0.016
T2C0.039
T3C0.051
T4C0.060
%
G90
G05
T1
X55591Y-35512
X55787Y-39665
X57874Y-32008
T2
X51732Y-28661
X52732Y-28661
X54031Y-28661
X55031Y-28661
X56031Y-28661
X57031Y-28661
X57106Y-40177
X57106Y-44902
X58031Y-28661
X59724Y-41811
X59724Y-42811
X59724Y-43811
X61220Y-41240
X61220Y-42240
X61220Y-43240
T3
X52283Y-44921
X52303Y-40177
X57874Y-42559
T4
X46929Y-33614
X46929Y-35614
X46929Y-37614
X46929Y-39614
T0
M30
