G04 #@! TF.FileFunction,Soldermask,Bot*
%FSLAX46Y46*%
G04 Gerber Fmt 4.6, Leading zero omitted, Abs format (unit mm)*
G04 Created by KiCad (PCBNEW 4.0.6) date Thursday, 27 July 2017 21:49:40*
%MOMM*%
%LPD*%
G01*
G04 APERTURE LIST*
%ADD10C,0.100000*%
%ADD11C,2.500000*%
%ADD12C,3.000000*%
%ADD13C,3.810000*%
%ADD14R,3.810000X3.810000*%
%ADD15R,3.200000X2.500000*%
%ADD16R,1.500000X1.250000*%
%ADD17R,3.300000X1.700000*%
%ADD18R,1.700000X1.700000*%
%ADD19O,1.700000X1.700000*%
%ADD20R,1.900000X0.800000*%
%ADD21R,1.500000X1.300000*%
%ADD22R,1.300000X1.500000*%
%ADD23R,1.100000X2.500000*%
%ADD24R,2.500000X1.100000*%
G04 APERTURE END LIST*
D10*
D11*
X145050000Y-102050000D03*
D12*
X132850000Y-102050000D03*
X132800000Y-114100000D03*
D11*
X145050000Y-114050000D03*
D12*
X147000000Y-108100000D03*
D13*
X119200000Y-90460000D03*
X119200000Y-95540000D03*
D14*
X119200000Y-85380000D03*
D13*
X119200000Y-100620000D03*
D15*
X127600000Y-79650000D03*
X131900000Y-79650000D03*
D16*
X131600000Y-82650000D03*
X129100000Y-82650000D03*
D17*
X154300000Y-102050000D03*
X148800000Y-102050000D03*
D18*
X131400000Y-72800000D03*
D19*
X133940000Y-72800000D03*
D20*
X138750000Y-104550000D03*
X138750000Y-102650000D03*
X141750000Y-103600000D03*
D21*
X131600000Y-85300000D03*
X128900000Y-85300000D03*
X131550000Y-89300000D03*
X128850000Y-89300000D03*
X140350000Y-100750000D03*
X137650000Y-100750000D03*
X133950000Y-75850000D03*
X136650000Y-75850000D03*
X137650000Y-98250000D03*
X140350000Y-98250000D03*
X144000000Y-75850000D03*
X146700000Y-75850000D03*
D22*
X131650000Y-91650000D03*
X131650000Y-94350000D03*
D21*
X141650000Y-75850000D03*
X138950000Y-75850000D03*
D23*
X150000000Y-95000000D03*
X148000000Y-95000000D03*
X146000000Y-95000000D03*
X144000000Y-95000000D03*
X142000000Y-95000000D03*
X140000000Y-95000000D03*
X138000000Y-95000000D03*
X136000000Y-95000000D03*
X136000000Y-79600000D03*
X138000000Y-79600000D03*
X140000000Y-79600000D03*
X142000000Y-79600000D03*
X144000000Y-79600000D03*
X146000000Y-79600000D03*
X148000000Y-79600000D03*
X150000000Y-79600000D03*
D24*
X134300000Y-92310000D03*
X134300000Y-90310000D03*
X134300000Y-88310000D03*
X134300000Y-86310000D03*
X134300000Y-84310000D03*
X134300000Y-82310000D03*
D18*
X147400000Y-72800000D03*
D19*
X144860000Y-72800000D03*
X142320000Y-72800000D03*
X139780000Y-72800000D03*
X137240000Y-72800000D03*
D18*
X151700000Y-106200000D03*
D19*
X151700000Y-108740000D03*
X151700000Y-111280000D03*
D18*
X155500000Y-104750000D03*
D19*
X155500000Y-107290000D03*
X155500000Y-109830000D03*
M02*
