G04 #@! TF.FileFunction,Legend,Bot*
%FSLAX46Y46*%
G04 Gerber Fmt 4.6, Leading zero omitted, Abs format (unit mm)*
G04 Created by KiCad (PCBNEW 4.0.6) date Thursday, 27 July 2017 21:49:40*
%MOMM*%
%LPD*%
G01*
G04 APERTURE LIST*
%ADD10C,0.100000*%
%ADD11C,0.200000*%
%ADD12C,0.381000*%
%ADD13C,0.120000*%
%ADD14C,0.150000*%
%ADD15C,0.152400*%
G04 APERTURE END LIST*
D10*
D11*
X137050000Y-116000000D02*
X137100000Y-116000000D01*
X137050000Y-113150000D02*
X137050000Y-116000000D01*
X140150000Y-110050000D02*
X137050000Y-113150000D01*
X147800000Y-110050000D02*
X140150000Y-110050000D01*
X148050000Y-109800000D02*
X147800000Y-110050000D01*
X148950000Y-108900000D02*
X148050000Y-109800000D01*
X148950000Y-108650000D02*
X148950000Y-108900000D01*
X148950000Y-107350000D02*
X148950000Y-108650000D01*
X148700000Y-107100000D02*
X148950000Y-107350000D01*
X147750000Y-106150000D02*
X148700000Y-107100000D01*
X147300000Y-106150000D02*
X147750000Y-106150000D01*
X137650000Y-106150000D02*
X147300000Y-106150000D01*
X136200000Y-104700000D02*
X137650000Y-106150000D01*
X136200000Y-101350000D02*
X136200000Y-104700000D01*
X123300000Y-82200000D02*
X118650000Y-77550000D01*
X123300000Y-88450000D02*
X136200000Y-101350000D01*
X123300000Y-82150000D02*
X123300000Y-88450000D01*
X157375000Y-87375000D02*
X153375000Y-87375000D01*
X155875000Y-87375000D02*
X157375000Y-88875000D01*
X155875000Y-87375000D02*
X157375000Y-85875000D01*
X152375000Y-79375000D02*
X158375000Y-79375000D01*
X152375000Y-95375000D02*
X152375000Y-79375000D01*
X158375000Y-95375000D02*
X152375000Y-95375000D01*
X158375000Y-79375000D02*
X158375000Y-95375000D01*
X147666667Y-87028571D02*
X147333333Y-87028571D01*
X147190476Y-87552381D02*
X147666667Y-87552381D01*
X147666667Y-86552381D01*
X147190476Y-86552381D01*
X146809524Y-87504762D02*
X146666667Y-87552381D01*
X146428571Y-87552381D01*
X146333333Y-87504762D01*
X146285714Y-87457143D01*
X146238095Y-87361905D01*
X146238095Y-87266667D01*
X146285714Y-87171429D01*
X146333333Y-87123810D01*
X146428571Y-87076190D01*
X146619048Y-87028571D01*
X146714286Y-86980952D01*
X146761905Y-86933333D01*
X146809524Y-86838095D01*
X146809524Y-86742857D01*
X146761905Y-86647619D01*
X146714286Y-86600000D01*
X146619048Y-86552381D01*
X146380952Y-86552381D01*
X146238095Y-86600000D01*
X145809524Y-87552381D02*
X145809524Y-86552381D01*
X145428571Y-86552381D01*
X145333333Y-86600000D01*
X145285714Y-86647619D01*
X145238095Y-86742857D01*
X145238095Y-86885714D01*
X145285714Y-86980952D01*
X145333333Y-87028571D01*
X145428571Y-87076190D01*
X145809524Y-87076190D01*
X144809524Y-87171429D02*
X144047619Y-87171429D01*
X143047619Y-87552381D02*
X143619048Y-87552381D01*
X143333334Y-87552381D02*
X143333334Y-86552381D01*
X143428572Y-86695238D01*
X143523810Y-86790476D01*
X143619048Y-86838095D01*
X142666667Y-86647619D02*
X142619048Y-86600000D01*
X142523810Y-86552381D01*
X142285714Y-86552381D01*
X142190476Y-86600000D01*
X142142857Y-86647619D01*
X142095238Y-86742857D01*
X142095238Y-86838095D01*
X142142857Y-86980952D01*
X142714286Y-87552381D01*
X142095238Y-87552381D01*
X141666667Y-87028571D02*
X141333333Y-87028571D01*
X141190476Y-87552381D02*
X141666667Y-87552381D01*
X141666667Y-86552381D01*
X141190476Y-86552381D01*
X140047619Y-86504762D02*
X140904762Y-87790476D01*
X139380952Y-87028571D02*
X139714286Y-87028571D01*
X139714286Y-87552381D02*
X139714286Y-86552381D01*
X139238095Y-86552381D01*
D12*
X126452160Y-108849640D02*
X127651040Y-105750840D01*
X127651040Y-105750840D02*
X127051600Y-106149620D01*
X126050840Y-106850660D02*
X127351320Y-104049040D01*
X126452160Y-108849640D02*
X127051600Y-108151140D01*
X126850940Y-103850920D02*
X126050840Y-106850660D01*
X126050840Y-106850660D02*
X127249720Y-106050560D01*
X127249720Y-106050560D02*
X126452160Y-108849640D01*
X126452160Y-108849640D02*
X126350560Y-107950480D01*
X126950000Y-102459000D02*
X131649000Y-109444000D01*
X131649000Y-109444000D02*
X122251000Y-109444000D01*
X122251000Y-109444000D02*
X126950000Y-102459000D01*
D13*
X125700000Y-81300000D02*
X131500000Y-81300000D01*
X125700000Y-78000000D02*
X131500000Y-78000000D01*
X125700000Y-81300000D02*
X125700000Y-78000000D01*
D14*
X129850000Y-81800000D02*
X130850000Y-81800000D01*
X130850000Y-83500000D02*
X129850000Y-83500000D01*
D13*
X148800000Y-101050000D02*
X156100000Y-101050000D01*
X156100000Y-101050000D02*
X156100000Y-103050000D01*
X156100000Y-103050000D02*
X148800000Y-103050000D01*
X141010000Y-102020000D02*
X141010000Y-102950000D01*
X141010000Y-105180000D02*
X141010000Y-104250000D01*
X141010000Y-105180000D02*
X137850000Y-105180000D01*
X141010000Y-102020000D02*
X139550000Y-102020000D01*
D14*
X129650000Y-86175000D02*
X130850000Y-86175000D01*
X130850000Y-84425000D02*
X129650000Y-84425000D01*
X129600000Y-90175000D02*
X130800000Y-90175000D01*
X130800000Y-88425000D02*
X129600000Y-88425000D01*
X138400000Y-101625000D02*
X139600000Y-101625000D01*
X139600000Y-99875000D02*
X138400000Y-99875000D01*
X135900000Y-74975000D02*
X134700000Y-74975000D01*
X134700000Y-76725000D02*
X135900000Y-76725000D01*
X139600000Y-97375000D02*
X138400000Y-97375000D01*
X138400000Y-99125000D02*
X139600000Y-99125000D01*
X145950000Y-74975000D02*
X144750000Y-74975000D01*
X144750000Y-76725000D02*
X145950000Y-76725000D01*
X132525000Y-93600000D02*
X132525000Y-92400000D01*
X130775000Y-92400000D02*
X130775000Y-93600000D01*
X139700000Y-76725000D02*
X140900000Y-76725000D01*
X140900000Y-74975000D02*
X139700000Y-74975000D01*
D15*
X135141000Y-95316000D02*
X134379000Y-95316000D01*
X134379000Y-95316000D02*
X134379000Y-79314000D01*
X134379000Y-79314000D02*
X135141000Y-79314000D01*
D14*
X124766666Y-80007143D02*
X124814285Y-80054762D01*
X124957142Y-80102381D01*
X125052380Y-80102381D01*
X125195238Y-80054762D01*
X125290476Y-79959524D01*
X125338095Y-79864286D01*
X125385714Y-79673810D01*
X125385714Y-79530952D01*
X125338095Y-79340476D01*
X125290476Y-79245238D01*
X125195238Y-79150000D01*
X125052380Y-79102381D01*
X124957142Y-79102381D01*
X124814285Y-79150000D01*
X124766666Y-79197619D01*
X123814285Y-80102381D02*
X124385714Y-80102381D01*
X124100000Y-80102381D02*
X124100000Y-79102381D01*
X124195238Y-79245238D01*
X124290476Y-79340476D01*
X124385714Y-79388095D01*
X127216666Y-83057143D02*
X127264285Y-83104762D01*
X127407142Y-83152381D01*
X127502380Y-83152381D01*
X127645238Y-83104762D01*
X127740476Y-83009524D01*
X127788095Y-82914286D01*
X127835714Y-82723810D01*
X127835714Y-82580952D01*
X127788095Y-82390476D01*
X127740476Y-82295238D01*
X127645238Y-82200000D01*
X127502380Y-82152381D01*
X127407142Y-82152381D01*
X127264285Y-82200000D01*
X127216666Y-82247619D01*
X126883333Y-82152381D02*
X126264285Y-82152381D01*
X126597619Y-82533333D01*
X126454761Y-82533333D01*
X126359523Y-82580952D01*
X126311904Y-82628571D01*
X126264285Y-82723810D01*
X126264285Y-82961905D01*
X126311904Y-83057143D01*
X126359523Y-83104762D01*
X126454761Y-83152381D01*
X126740476Y-83152381D01*
X126835714Y-83104762D01*
X126883333Y-83057143D01*
X157888095Y-102502381D02*
X157888095Y-101502381D01*
X157650000Y-101502381D01*
X157507142Y-101550000D01*
X157411904Y-101645238D01*
X157364285Y-101740476D01*
X157316666Y-101930952D01*
X157316666Y-102073810D01*
X157364285Y-102264286D01*
X157411904Y-102359524D01*
X157507142Y-102454762D01*
X157650000Y-102502381D01*
X157888095Y-102502381D01*
X156364285Y-102502381D02*
X156935714Y-102502381D01*
X156650000Y-102502381D02*
X156650000Y-101502381D01*
X156745238Y-101645238D01*
X156840476Y-101740476D01*
X156935714Y-101788095D01*
X144045238Y-105397619D02*
X144140476Y-105350000D01*
X144235714Y-105254762D01*
X144378571Y-105111905D01*
X144473810Y-105064286D01*
X144569048Y-105064286D01*
X144521429Y-105302381D02*
X144616667Y-105254762D01*
X144711905Y-105159524D01*
X144759524Y-104969048D01*
X144759524Y-104635714D01*
X144711905Y-104445238D01*
X144616667Y-104350000D01*
X144521429Y-104302381D01*
X144330952Y-104302381D01*
X144235714Y-104350000D01*
X144140476Y-104445238D01*
X144092857Y-104635714D01*
X144092857Y-104969048D01*
X144140476Y-105159524D01*
X144235714Y-105254762D01*
X144330952Y-105302381D01*
X144521429Y-105302381D01*
X143140476Y-105302381D02*
X143711905Y-105302381D01*
X143426191Y-105302381D02*
X143426191Y-104302381D01*
X143521429Y-104445238D01*
X143616667Y-104540476D01*
X143711905Y-104588095D01*
X127066666Y-85802381D02*
X127400000Y-85326190D01*
X127638095Y-85802381D02*
X127638095Y-84802381D01*
X127257142Y-84802381D01*
X127161904Y-84850000D01*
X127114285Y-84897619D01*
X127066666Y-84992857D01*
X127066666Y-85135714D01*
X127114285Y-85230952D01*
X127161904Y-85278571D01*
X127257142Y-85326190D01*
X127638095Y-85326190D01*
X126114285Y-85802381D02*
X126685714Y-85802381D01*
X126400000Y-85802381D02*
X126400000Y-84802381D01*
X126495238Y-84945238D01*
X126590476Y-85040476D01*
X126685714Y-85088095D01*
X127016666Y-89802381D02*
X127350000Y-89326190D01*
X127588095Y-89802381D02*
X127588095Y-88802381D01*
X127207142Y-88802381D01*
X127111904Y-88850000D01*
X127064285Y-88897619D01*
X127016666Y-88992857D01*
X127016666Y-89135714D01*
X127064285Y-89230952D01*
X127111904Y-89278571D01*
X127207142Y-89326190D01*
X127588095Y-89326190D01*
X126635714Y-88897619D02*
X126588095Y-88850000D01*
X126492857Y-88802381D01*
X126254761Y-88802381D01*
X126159523Y-88850000D01*
X126111904Y-88897619D01*
X126064285Y-88992857D01*
X126064285Y-89088095D01*
X126111904Y-89230952D01*
X126683333Y-89802381D01*
X126064285Y-89802381D01*
X142616666Y-101202381D02*
X142950000Y-100726190D01*
X143188095Y-101202381D02*
X143188095Y-100202381D01*
X142807142Y-100202381D01*
X142711904Y-100250000D01*
X142664285Y-100297619D01*
X142616666Y-100392857D01*
X142616666Y-100535714D01*
X142664285Y-100630952D01*
X142711904Y-100678571D01*
X142807142Y-100726190D01*
X143188095Y-100726190D01*
X142283333Y-100202381D02*
X141664285Y-100202381D01*
X141997619Y-100583333D01*
X141854761Y-100583333D01*
X141759523Y-100630952D01*
X141711904Y-100678571D01*
X141664285Y-100773810D01*
X141664285Y-101011905D01*
X141711904Y-101107143D01*
X141759523Y-101154762D01*
X141854761Y-101202381D01*
X142140476Y-101202381D01*
X142235714Y-101154762D01*
X142283333Y-101107143D01*
X135416666Y-78002381D02*
X135750000Y-77526190D01*
X135988095Y-78002381D02*
X135988095Y-77002381D01*
X135607142Y-77002381D01*
X135511904Y-77050000D01*
X135464285Y-77097619D01*
X135416666Y-77192857D01*
X135416666Y-77335714D01*
X135464285Y-77430952D01*
X135511904Y-77478571D01*
X135607142Y-77526190D01*
X135988095Y-77526190D01*
X134559523Y-77335714D02*
X134559523Y-78002381D01*
X134797619Y-76954762D02*
X135035714Y-77669048D01*
X134416666Y-77669048D01*
X142616666Y-98702381D02*
X142950000Y-98226190D01*
X143188095Y-98702381D02*
X143188095Y-97702381D01*
X142807142Y-97702381D01*
X142711904Y-97750000D01*
X142664285Y-97797619D01*
X142616666Y-97892857D01*
X142616666Y-98035714D01*
X142664285Y-98130952D01*
X142711904Y-98178571D01*
X142807142Y-98226190D01*
X143188095Y-98226190D01*
X141711904Y-97702381D02*
X142188095Y-97702381D01*
X142235714Y-98178571D01*
X142188095Y-98130952D01*
X142092857Y-98083333D01*
X141854761Y-98083333D01*
X141759523Y-98130952D01*
X141711904Y-98178571D01*
X141664285Y-98273810D01*
X141664285Y-98511905D01*
X141711904Y-98607143D01*
X141759523Y-98654762D01*
X141854761Y-98702381D01*
X142092857Y-98702381D01*
X142188095Y-98654762D01*
X142235714Y-98607143D01*
X145566666Y-78002381D02*
X145900000Y-77526190D01*
X146138095Y-78002381D02*
X146138095Y-77002381D01*
X145757142Y-77002381D01*
X145661904Y-77050000D01*
X145614285Y-77097619D01*
X145566666Y-77192857D01*
X145566666Y-77335714D01*
X145614285Y-77430952D01*
X145661904Y-77478571D01*
X145757142Y-77526190D01*
X146138095Y-77526190D01*
X144709523Y-77002381D02*
X144900000Y-77002381D01*
X144995238Y-77050000D01*
X145042857Y-77097619D01*
X145138095Y-77240476D01*
X145185714Y-77430952D01*
X145185714Y-77811905D01*
X145138095Y-77907143D01*
X145090476Y-77954762D01*
X144995238Y-78002381D01*
X144804761Y-78002381D01*
X144709523Y-77954762D01*
X144661904Y-77907143D01*
X144614285Y-77811905D01*
X144614285Y-77573810D01*
X144661904Y-77478571D01*
X144709523Y-77430952D01*
X144804761Y-77383333D01*
X144995238Y-77383333D01*
X145090476Y-77430952D01*
X145138095Y-77478571D01*
X145185714Y-77573810D01*
X129866666Y-93452381D02*
X130200000Y-92976190D01*
X130438095Y-93452381D02*
X130438095Y-92452381D01*
X130057142Y-92452381D01*
X129961904Y-92500000D01*
X129914285Y-92547619D01*
X129866666Y-92642857D01*
X129866666Y-92785714D01*
X129914285Y-92880952D01*
X129961904Y-92928571D01*
X130057142Y-92976190D01*
X130438095Y-92976190D01*
X129295238Y-92880952D02*
X129390476Y-92833333D01*
X129438095Y-92785714D01*
X129485714Y-92690476D01*
X129485714Y-92642857D01*
X129438095Y-92547619D01*
X129390476Y-92500000D01*
X129295238Y-92452381D01*
X129104761Y-92452381D01*
X129009523Y-92500000D01*
X128961904Y-92547619D01*
X128914285Y-92642857D01*
X128914285Y-92690476D01*
X128961904Y-92785714D01*
X129009523Y-92833333D01*
X129104761Y-92880952D01*
X129295238Y-92880952D01*
X129390476Y-92928571D01*
X129438095Y-92976190D01*
X129485714Y-93071429D01*
X129485714Y-93261905D01*
X129438095Y-93357143D01*
X129390476Y-93404762D01*
X129295238Y-93452381D01*
X129104761Y-93452381D01*
X129009523Y-93404762D01*
X128961904Y-93357143D01*
X128914285Y-93261905D01*
X128914285Y-93071429D01*
X128961904Y-92976190D01*
X129009523Y-92928571D01*
X129104761Y-92880952D01*
X140942857Y-78002381D02*
X141276191Y-77526190D01*
X141514286Y-78002381D02*
X141514286Y-77002381D01*
X141133333Y-77002381D01*
X141038095Y-77050000D01*
X140990476Y-77097619D01*
X140942857Y-77192857D01*
X140942857Y-77335714D01*
X140990476Y-77430952D01*
X141038095Y-77478571D01*
X141133333Y-77526190D01*
X141514286Y-77526190D01*
X139990476Y-78002381D02*
X140561905Y-78002381D01*
X140276191Y-78002381D02*
X140276191Y-77002381D01*
X140371429Y-77145238D01*
X140466667Y-77240476D01*
X140561905Y-77288095D01*
X139609524Y-77097619D02*
X139561905Y-77050000D01*
X139466667Y-77002381D01*
X139228571Y-77002381D01*
X139133333Y-77050000D01*
X139085714Y-77097619D01*
X139038095Y-77192857D01*
X139038095Y-77288095D01*
X139085714Y-77430952D01*
X139657143Y-78002381D01*
X139038095Y-78002381D01*
M02*
